<svg xmlns="http://www.w3.org/2000/svg" viewBox="0 0 120.62 178.68">
  <path fill="#d6c4c0" d="M83.3,8.03c12.15,4.72,29.02,16.2,30.37,31.72.67,13.5-12.15,17.54-12.15,34.41,0,12.82,8.1,16.2,12.15,29.69,5.4,18.89,0,47.91-20.92,62.08-22.94,15.52-51.96,3.37-58.03.67-8.77-4.05-24.29-10.8-27.67-24.29-4.05-15.52,13.5-22.94,12.82-43.86-.67-17.54-13.5-19.57-14.85-37.79-.67-18.89,13.5-36.44,26.32-45.21,3.37-1.35,26.32-16.87,51.96-7.42Z"/>
  <path fill="#55505C" d="M79.42,43.28c1.99-.85,3.97-1.7,5.96-2.54-.65-2.2-1.5-3.84-2.13-4.9-3.53-5.95-8.98-8.43-10.79-9.16-.32-.13-1.85-.8-3.99-1.19-1.96-.36-4.38-.62-7.13-.54-1.86.05-3.54.25-5.01.5-1.62.26-3.83.79-6.25,1.94-2.13,1.01-3.76,2.19-4.93,3.17-.8.7-1.76,1.68-2.65,3-1.34,2-1.95,3.92-2.24,5.21-.1.43-.46,2.1-.39,4.34.05,1.34.23,5.32,2.87,9.24,1.16,1.74,2.32,2.87,3.24,3.59,1.39,1.09,3.56,2.69,6.38,4.39,2.36,1.43,2.04,1.03,7.37,3.96,4.17,2.29,7.89,4.46,9.18,5.22.48.28.88.52,1.16.68,0,0,1.82,1.17,3.24,2.69,1.27,1.37,3.78,4.06,3.79,7.98,0,4.2-2.88,7.01-3.62,7.68-2.3,2.09-4.97,2.62-6.86,3-1.92.39-3.45.38-4.01.33-1.39-.13-3.12-.41-5.03-1.01-1.73-.54-3.18-1.21-4.33-1.83-1.81-1.13-3.04-2.33-3.82-3.22-1.43-1.61-2.26-3.17-3.31-5.12-.67-1.24-1.16-2.31-1.5-3.07-2.02.83-4.05,1.67-6.07,2.5l.06,68.17,45.87-.17.03-4.66-34.48.14-.07-50.04c.92.46,2,.93,3.24,1.34,1.62.54,3.1.83,4.35,1,1.72.21,3.72.34,5.95.29,2.22-.05,4.2-.28,5.9-.57,1.63-.32,3.6-.84,5.73-1.73,1.67-.69,3.09-1.46,4.27-2.19,1.25-.9,3.02-2.4,4.55-4.69,1.04-1.56,1.69-3.05,2.09-4.22.56-1.62.69-2.93.79-3.8.17-1.56.35-3.16-.07-5.15-.42-1.95-1.21-3.28-2.01-4.64-.51-.87-1.33-2.51-3.01-3.97-3.39-2.94-5.9-4.55-7.48-5.44-.55-.31-1.94-1.07-3.35-1.83-1.56-.83-2.85-1.51-3.74-1.97-1.79-.82-3.66-1.77-5.59-2.86-3.25-1.83-6.08-3.73-8.52-5.57-1.64-1.24-2.14-2.09-2.48-2.55-.63-.88-2.13-3.03-2.08-5.97.02-1.37.35-2.41.51-2.77.34-.79.94-1.92,1.97-3.04,1.87-2.03,4.03-2.77,5.34-3.21,4.87-1.61,9.21-.37,10.51.02,4.61,1.38,7.37,4.17,8.24,5.1,2.92,3.15,3.97,6.5,4.36,8.11Z"/>
</svg>
